<svg xmlns="http://www.w3.org/2000/svg" xmlns:xlink="http://www.w3.org/1999/xlink" width="2000" zoomAndPan="magnify" viewBox="0 0 1500 1499.999933" height="2000" preserveAspectRatio="xMidYMid meet" version="1.0"><defs><linearGradient x1="1000" gradientTransform="matrix(0.75, 0, 0, 0.75, 0.00003335, -0.00002)" y1="0.0000266667" x2="1000" gradientUnits="userSpaceOnUse" y2="1999.999917" id="5af92443ab"><stop stop-opacity="1" stop-color="rgb(17.248535%, 23.139954%, 30.198669%)" offset="0"/><stop stop-opacity="1" stop-color="rgb(17.144775%, 23.010254%, 30.032349%)" offset="0.03125"/><stop stop-opacity="1" stop-color="rgb(16.937256%, 22.75238%, 29.702759%)" offset="0.0625"/><stop stop-opacity="1" stop-color="rgb(16.72821%, 22.494507%, 29.371643%)" offset="0.09375"/><stop stop-opacity="1" stop-color="rgb(16.520691%, 22.238159%, 29.040527%)" offset="0.125"/><stop stop-opacity="1" stop-color="rgb(16.311646%, 21.980286%, 28.709412%)" offset="0.15625"/><stop stop-opacity="1" stop-color="rgb(16.104126%, 21.722412%, 28.378296%)" offset="0.1875"/><stop stop-opacity="1" stop-color="rgb(15.896606%, 21.464539%, 28.04718%)" offset="0.21875"/><stop stop-opacity="1" stop-color="rgb(15.687561%, 21.206665%, 27.716064%)" offset="0.25"/><stop stop-opacity="1" stop-color="rgb(15.480042%, 20.950317%, 27.384949%)" offset="0.28125"/><stop stop-opacity="1" stop-color="rgb(15.270996%, 20.692444%, 27.055359%)" offset="0.3125"/><stop stop-opacity="1" stop-color="rgb(15.063477%, 20.43457%, 26.724243%)" offset="0.34375"/><stop stop-opacity="1" stop-color="rgb(14.855957%, 20.176697%, 26.393127%)" offset="0.375"/><stop stop-opacity="1" stop-color="rgb(14.646912%, 19.920349%, 26.062012%)" offset="0.40625"/><stop stop-opacity="1" stop-color="rgb(14.439392%, 19.662476%, 25.730896%)" offset="0.4375"/><stop stop-opacity="1" stop-color="rgb(14.231873%, 19.404602%, 25.39978%)" offset="0.46875"/><stop stop-opacity="1" stop-color="rgb(14.022827%, 19.146729%, 25.068665%)" offset="0.5"/><stop stop-opacity="1" stop-color="rgb(13.815308%, 18.890381%, 24.737549%)" offset="0.53125"/><stop stop-opacity="1" stop-color="rgb(13.606262%, 18.632507%, 24.406433%)" offset="0.5625"/><stop stop-opacity="1" stop-color="rgb(13.398743%, 18.374634%, 24.076843%)" offset="0.59375"/><stop stop-opacity="1" stop-color="rgb(13.191223%, 18.11676%, 23.745728%)" offset="0.625"/><stop stop-opacity="1" stop-color="rgb(12.982178%, 17.860413%, 23.414612%)" offset="0.65625"/><stop stop-opacity="1" stop-color="rgb(12.774658%, 17.602539%, 23.083496%)" offset="0.6875"/><stop stop-opacity="1" stop-color="rgb(12.565613%, 17.344666%, 22.75238%)" offset="0.71875"/><stop stop-opacity="1" stop-color="rgb(12.358093%, 17.086792%, 22.421265%)" offset="0.75"/><stop stop-opacity="1" stop-color="rgb(12.150574%, 16.830444%, 22.090149%)" offset="0.78125"/><stop stop-opacity="1" stop-color="rgb(11.941528%, 16.572571%, 21.759033%)" offset="0.8125"/><stop stop-opacity="1" stop-color="rgb(11.734009%, 16.314697%, 21.429443%)" offset="0.84375"/><stop stop-opacity="1" stop-color="rgb(11.524963%, 16.056824%, 21.098328%)" offset="0.875"/><stop stop-opacity="1" stop-color="rgb(11.317444%, 15.800476%, 20.767212%)" offset="0.90625"/><stop stop-opacity="1" stop-color="rgb(11.109924%, 15.542603%, 20.436096%)" offset="0.9375"/><stop stop-opacity="1" stop-color="rgb(10.900879%, 15.284729%, 20.10498%)" offset="0.96875"/><stop stop-opacity="1" stop-color="rgb(10.693359%, 15.026855%, 19.773865%)" offset="1"/></linearGradient><clipPath id="3aa092be6d"><path d="M 221 170 L 1245 170 L 1245 1284 L 221 1284 Z M 221 170 " clip-rule="nonzero"/></clipPath><clipPath id="7a41d63e2f"><path d="M 150 337.753906 L 1109.523438 148.554688 L 1309.171875 1161.058594 L 349.644531 1350.257812 Z M 150 337.753906 " clip-rule="nonzero"/></clipPath><clipPath id="c84ddf2480"><path d="M 150 337.753906 L 1109.523438 148.554688 L 1309.171875 1161.058594 L 349.644531 1350.257812 Z M 150 337.753906 " clip-rule="nonzero"/></clipPath><clipPath id="377a8d84c2"><path d="M 237 205 L 1222 205 L 1222 1261 L 237 1261 Z M 237 205 " clip-rule="nonzero"/></clipPath><clipPath id="94b416ea3a"><path d="M 150 337.753906 L 1109.523438 148.554688 L 1309.171875 1161.058594 L 349.644531 1350.257812 Z M 150 337.753906 " clip-rule="nonzero"/></clipPath><clipPath id="bc41b81128"><path d="M 150 337.753906 L 1109.523438 148.554688 L 1309.171875 1161.058594 L 349.644531 1350.257812 Z M 150 337.753906 " clip-rule="nonzero"/></clipPath></defs><rect x="-150" width="1800" fill="#ffffff" y="-149.999993" height="1799.99992" fill-opacity="1"/><rect x="-150" fill="url(#5af92443ab)" width="1800" y="-149.999993" height="1799.99992"/><g clip-path="url(#3aa092be6d)"><g clip-path="url(#7a41d63e2f)"><g clip-path="url(#c84ddf2480)"><path fill="#fdb060" d="M 1244.84375 897.125 L 972.269531 848.125 L 1099.101562 1133.984375 L 804.027344 940.5 L 688.390625 1283.03125 L 650.378906 943.867188 L 413.464844 1033.09375 C 413.464844 1033.09375 547.382812 841.378906 601.082031 750.324219 L 221.984375 702.359375 L 568.632812 562.734375 L 488.855469 271.097656 L 764.246094 492.980469 L 999.109375 170.488281 L 940.425781 524.921875 L 1165.382812 431.285156 L 993.042969 705.207031 Z M 1244.84375 897.125 " fill-opacity="1" fill-rule="nonzero"/></g></g></g><g clip-path="url(#377a8d84c2)"><g clip-path="url(#94b416ea3a)"><g clip-path="url(#bc41b81128)"><path fill="#a45239" d="M 758.757812 669.332031 L 750.390625 665.144531 L 771.355469 623.320312 L 779.71875 627.507812 Z M 712.382812 615.753906 L 686.6875 576.664062 L 694.503906 571.523438 L 720.203125 610.613281 Z M 811.164062 564.777344 L 802.800781 560.582031 L 823.761719 518.761719 L 832.125 522.957031 Z M 648.140625 518.027344 L 622.441406 478.933594 L 630.261719 473.792969 L 655.957031 512.882812 Z M 863.570312 460.21875 L 855.203125 456.027344 L 876.167969 414.203125 L 884.535156 418.398438 Z M 915.976562 355.660156 L 907.613281 351.472656 L 928.574219 309.648438 L 936.9375 313.839844 Z M 583.890625 420.296875 L 558.191406 381.207031 L 566.011719 376.066406 L 591.710938 415.15625 Z M 968.382812 251.105469 L 960.019531 246.910156 L 980.980469 205.089844 L 989.347656 209.285156 Z M 519.644531 322.566406 L 493.949219 283.476562 L 501.765625 278.335938 L 527.464844 317.425781 Z M 440.800781 1015.414062 L 433.925781 1009.070312 L 465.640625 974.679688 L 472.519531 981.027344 Z M 520.09375 929.441406 L 513.21875 923.097656 L 544.9375 888.710938 L 551.8125 895.054688 Z M 599.390625 843.472656 L 592.511719 837.125 L 624.230469 802.738281 L 631.105469 809.082031 Z M 678.683594 757.5 L 671.808594 751.15625 L 703.523438 716.769531 L 710.402344 723.113281 Z M 751.960938 674.375 L 705.253906 677.0625 L 704.714844 667.722656 L 751.421875 665.035156 Z M 635.195312 681.09375 L 588.492188 683.78125 L 587.953125 674.4375 L 634.65625 671.75 Z M 518.433594 687.8125 L 471.730469 690.5 L 471.191406 681.160156 L 517.894531 678.472656 Z M 401.671875 694.53125 L 354.96875 697.21875 L 354.429688 687.878906 L 401.132812 685.191406 Z M 284.910156 701.25 L 238.203125 703.9375 L 237.667969 694.597656 L 284.371094 691.910156 Z M 691.65625 1260.503906 L 682.347656 1259.519531 L 687.25 1212.996094 L 696.558594 1213.980469 Z M 1050.09375 1078.589844 L 1021.96875 1041.203125 L 1029.445312 1035.582031 L 1057.574219 1072.960938 Z M 703.910156 1144.191406 L 694.605469 1143.210938 L 699.507812 1096.6875 L 708.8125 1097.667969 Z M 979.78125 985.128906 L 951.652344 947.746094 L 959.128906 942.125 L 987.257812 979.507812 Z M 716.167969 1027.882812 L 706.859375 1026.898438 L 711.761719 980.375 L 721.070312 981.355469 Z M 909.460938 891.671875 L 881.335938 854.289062 L 888.8125 848.667969 L 916.9375 886.050781 Z M 728.425781 911.566406 L 719.117188 910.585938 L 724.019531 864.0625 L 733.328125 865.042969 Z M 839.144531 798.21875 L 811.019531 760.832031 L 818.496094 755.210938 L 846.621094 792.59375 Z M 740.683594 795.257812 L 731.375 794.273438 L 736.277344 747.75 L 745.582031 748.734375 Z M 768.828125 704.761719 L 749.101562 678.539062 L 743.628906 677.964844 L 745.6875 658.445312 L 776.304688 699.136719 Z M 1217.273438 889.992188 L 1174.835938 870.300781 L 1178.773438 861.8125 L 1221.210938 881.503906 Z M 1111.179688 840.765625 L 1068.742188 821.078125 L 1072.679688 812.589844 L 1115.117188 832.277344 Z M 1005.089844 791.542969 L 962.648438 771.855469 L 966.585938 763.367188 L 1009.027344 783.058594 Z M 898.996094 742.320312 L 856.558594 722.632812 L 860.496094 714.144531 L 902.933594 733.832031 Z M 792.902344 693.097656 L 743.257812 670.066406 L 751.953125 665.035156 L 753.925781 668.445312 L 755.355469 665.363281 L 796.839844 684.609375 Z M 817.355469 637.945312 L 812.664062 629.847656 L 853.144531 606.394531 L 857.835938 614.488281 Z M 918.550781 579.304688 L 913.859375 571.210938 L 954.335938 547.753906 L 959.027344 555.847656 Z M 1019.742188 520.664062 L 1015.050781 512.570312 L 1055.527344 489.113281 L 1060.21875 497.207031 Z M 1120.9375 462.023438 L 1116.242188 453.925781 L 1156.71875 430.472656 L 1161.414062 438.566406 Z M 1120.9375 462.023438 " fill-opacity="1" fill-rule="nonzero"/></g></g></g></svg>