<svg xmlns="http://www.w3.org/2000/svg" xmlns:xlink="http://www.w3.org/1999/xlink" width="2000" zoomAndPan="magnify" viewBox="0 0 1500 1499.999933" height="2000" preserveAspectRatio="xMidYMid meet" version="1.0"><defs><clipPath id="0260fdf9ae"><path d="M 93 28 L 1417 28 L 1417 1469 L 93 1469 Z M 93 28 " clip-rule="nonzero"/></clipPath><clipPath id="652ca2cafa"><path d="M 0 244.839844 L 1241.347656 0.0703125 L 1499.609375 1309.851562 L 258.261719 1554.621094 Z M 0 244.839844 " clip-rule="nonzero"/></clipPath><clipPath id="2b76973d33"><path d="M 0 244.839844 L 1241.347656 0.0703125 L 1499.609375 1309.851562 L 258.261719 1554.621094 Z M 0 244.839844 " clip-rule="nonzero"/></clipPath><clipPath id="f60c04dc45"><path d="M 113 73 L 1387 73 L 1387 1439 L 113 1439 Z M 113 73 " clip-rule="nonzero"/></clipPath><clipPath id="27ffa88f20"><path d="M 0 244.839844 L 1241.347656 0.0703125 L 1499.609375 1309.851562 L 258.261719 1554.621094 Z M 0 244.839844 " clip-rule="nonzero"/></clipPath><clipPath id="9e7899c2b3"><path d="M 0 244.839844 L 1241.347656 0.0703125 L 1499.609375 1309.851562 L 258.261719 1554.621094 Z M 0 244.839844 " clip-rule="nonzero"/></clipPath></defs><g clip-path="url(#0260fdf9ae)"><g clip-path="url(#652ca2cafa)"><g clip-path="url(#2b76973d33)"><path fill="#2b394b" d="M 1416.835938 968.71875 L 1064.097656 905.304688 L 1228.230469 1275.234375 L 846.375 1024.847656 L 696.730469 1468.117188 L 647.539062 1029.207031 L 340.949219 1144.671875 C 340.949219 1144.671875 514.253906 896.574219 583.742188 778.738281 L 93.152344 716.667969 L 541.753906 535.980469 L 438.515625 158.578125 L 794.890625 445.714844 L 1098.832031 28.375 L 1022.886719 487.046875 L 1314.003906 365.875 L 1090.976562 720.359375 Z M 1416.835938 968.71875 " fill-opacity="1" fill-rule="nonzero"/></g></g></g><g clip-path="url(#f60c04dc45)"><g clip-path="url(#27ffa88f20)"><g clip-path="url(#9e7899c2b3)"><path fill="#fdb060" d="M 787.792969 673.929688 L 776.964844 668.507812 L 804.09375 614.386719 L 814.917969 619.808594 Z M 727.78125 604.597656 L 694.523438 554.007812 L 704.644531 547.355469 L 737.898438 597.941406 Z M 855.613281 538.625 L 844.785156 533.195312 L 871.914062 479.074219 L 882.738281 484.503906 Z M 644.640625 478.125 L 611.382812 427.539062 L 621.503906 420.882812 L 654.757812 471.472656 Z M 923.429688 403.320312 L 912.601562 397.890625 L 939.730469 343.765625 L 950.558594 349.195312 Z M 991.25 268.007812 L 980.421875 262.585938 L 1007.550781 208.464844 L 1018.375 213.886719 Z M 561.496094 351.652344 L 528.242188 301.066406 L 538.359375 294.414062 L 571.617188 345 Z M 1059.070312 132.703125 L 1048.242188 127.273438 L 1075.371094 73.15625 L 1086.195312 78.582031 Z M 478.355469 225.183594 L 445.101562 174.59375 L 455.21875 167.941406 L 488.476562 218.527344 Z M 376.324219 1121.796875 L 367.425781 1113.582031 L 408.46875 1069.082031 L 417.371094 1077.292969 Z M 478.9375 1010.539062 L 470.039062 1002.328125 L 511.085938 957.828125 L 519.984375 966.039062 Z M 581.554688 899.28125 L 572.65625 891.074219 L 613.699219 846.570312 L 622.597656 854.78125 Z M 684.167969 788.027344 L 675.269531 779.816406 L 716.316406 735.316406 L 725.214844 743.527344 Z M 778.992188 680.457031 L 718.550781 683.933594 L 717.855469 671.84375 L 778.296875 668.367188 Z M 627.890625 689.148438 L 567.453125 692.628906 L 566.753906 680.539062 L 627.195312 677.0625 Z M 476.789062 697.847656 L 416.351562 701.324219 L 415.652344 689.234375 L 476.09375 685.757812 Z M 325.6875 706.542969 L 265.246094 710.019531 L 264.550781 697.929688 L 324.988281 694.453125 Z M 174.585938 715.234375 L 114.144531 718.714844 L 113.449219 706.625 L 173.890625 703.144531 Z M 700.953125 1438.964844 L 688.910156 1437.691406 L 695.253906 1377.484375 L 707.296875 1378.757812 Z M 1164.8125 1203.546875 L 1128.410156 1155.167969 L 1138.089844 1147.890625 L 1174.488281 1196.269531 Z M 716.816406 1288.445312 L 704.773438 1287.175781 L 711.113281 1226.96875 L 723.15625 1228.238281 Z M 1073.816406 1082.601562 L 1037.414062 1034.226562 L 1047.09375 1026.949219 L 1083.492188 1075.324219 Z M 732.675781 1137.929688 L 720.632812 1136.65625 L 726.976562 1076.449219 L 739.019531 1077.71875 Z M 982.816406 961.660156 L 946.417969 913.285156 L 956.09375 906.007812 L 992.496094 954.382812 Z M 748.539062 987.40625 L 736.492188 986.136719 L 742.839844 925.929688 L 754.882812 927.199219 Z M 891.820312 840.71875 L 855.421875 792.34375 L 865.097656 785.066406 L 901.496094 833.441406 Z M 764.398438 836.890625 L 752.355469 835.617188 L 758.699219 775.410156 L 770.742188 776.683594 Z M 800.824219 719.777344 L 775.296875 685.847656 L 768.214844 685.101562 L 770.878906 659.839844 L 810.5 712.5 Z M 1381.15625 959.484375 L 1326.238281 934.003906 L 1331.332031 923.019531 L 1386.253906 948.5 Z M 1243.859375 895.78125 L 1188.945312 870.304688 L 1194.039062 859.320312 L 1248.957031 884.800781 Z M 1106.566406 832.085938 L 1051.648438 806.605469 L 1056.742188 795.621094 L 1111.664062 821.101562 Z M 969.273438 768.382812 L 914.355469 742.90625 L 919.449219 731.921875 L 974.367188 757.398438 Z M 831.980469 704.683594 L 767.734375 674.878906 L 778.984375 668.367188 L 781.539062 672.78125 L 783.390625 668.792969 L 837.074219 693.703125 Z M 863.625 633.308594 L 857.550781 622.835938 L 909.933594 592.480469 L 916.007812 602.957031 Z M 994.578125 557.425781 L 988.507812 546.949219 L 1040.886719 516.59375 L 1046.960938 527.066406 Z M 1125.53125 481.539062 L 1119.460938 471.0625 L 1171.839844 440.707031 L 1177.914062 451.183594 Z M 1256.484375 405.648438 L 1250.414062 395.175781 L 1302.792969 364.820312 L 1308.867188 375.296875 Z M 1256.484375 405.648438 " fill-opacity="1" fill-rule="nonzero"/></g></g></g></svg>